<?xml version="1.0" encoding="UTF-8"?>
<!DOCTYPE svg PUBLIC "-//W3C//DTD SVG 1.1//EN" "http://www.w3.org/Graphics/SVG/1.1/DTD/svg11.dtd">
<!-- Creator: CorelDRAW -->
<svg xmlns="http://www.w3.org/2000/svg" xml:space="preserve" width="2.80382in" height="2.51852in" version="1.1" style="shape-rendering:geometricPrecision; text-rendering:geometricPrecision; image-rendering:optimizeQuality; fill-rule:evenodd; clip-rule:evenodd"
viewBox="0 0 942.13 846.26"
 xmlns:xlink="http://www.w3.org/1999/xlink"
 xmlns:xodm="http://www.corel.com/coreldraw/odm/2003">
 <defs>
  <style type="text/css">
   <![CDATA[
    .fil2 {fill:#FEFEFE}
    .fil0 {fill:#8E51FF;fill-rule:nonzero}
    .fil1 {fill:#A684FF;fill-rule:nonzero}
   ]]>
  </style>
 </defs>
 <g id="Layer_x0020_1">
  <metadata id="CorelCorpID_0Corel-Layer"/>
  <g id="_1911421952256">
   <g>
    <path class="fil0" d="M694.98 0c-3.03,4.6 -6.14,9.13 -9.2,13.61 -118.48,170.76 -267.98,239.21 -319.52,261.64 7.53,-19.01 19.9,-52.21 35.63,-93.8 43.95,-58.55 114.18,-91.19 182.56,-122.96 39.67,-18.39 78.09,-36.24 110.52,-58.49z"/>
    <path class="fil1" d="M685.78 13.61c-118.48,170.76 -267.98,239.21 -319.52,261.64 45.07,-86.46 259.23,-185.49 319.52,-261.64z"/>
   </g>
   <g>
    <g>
     <path class="fil0" d="M941.98 398.47l-1.46 17.92 0 0.49 -24.26 312.29c-5.07,66.08 -60.1,117.08 -126.41,117.08l-637.55 0c-4.41,0 -8.82,-0.15 -13.01,-0.81 -60.47,-6.05 -108.67,-54.57 -113.39,-116.27l-0.18 -1.31 -25.56 -329.39c-2.11,-27.21 19.38,-50.32 46.58,-50.32l176.25 0c13.39,0 24.45,-10.93 24.45,-24.43l0 -3.58c0,-6.85 -2.8,-12.88 -7.17,-17.3 -4.41,-4.4 -10.59,-7.13 -17.27,-7.13 -18.75,0 -35.68,-7.68 -47.88,-19.89 -12.4,-12.24 -20.04,-29.31 -20.04,-48.04 0,-37.49 30.47,-67.81 67.92,-67.81l496.18 0c18.73,0 35.66,7.68 47.89,19.91 12.36,12.21 20.03,29.29 20.03,47.9 0,18.73 -7.67,35.81 -20.03,48.04 -12.24,12.21 -29.17,19.89 -47.89,19.89 -13.35,0 -24.44,10.89 -24.44,24.43l0 3.58c0,13.51 11.08,24.43 24.44,24.43l176.23 0c27.2,0 48.73,23.11 46.59,50.32z"/>
     <path class="fil1" d="M25.7 727.87l-25.56 -329.39c-2.11,-27.21 19.38,-50.32 46.58,-50.32l176.25 0c13.39,0 24.45,-10.93 24.45,-24.43l0 -3.58c0,-6.85 -2.8,-12.88 -7.17,-17.3 -4.41,-4.4 -10.59,-7.13 -17.27,-7.13 -18.75,0 -35.68,-7.68 -47.88,-19.89 -12.4,-12.24 -20.04,-29.31 -20.04,-48.04 0,-37.49 30.47,-67.81 67.92,-67.81l224.81 0c154.91,179.06 -71.37,563.98 -422.08,567.9z"/>
    </g>
    <g>
     <path class="fil2" d="M561.02 712.78c-1.46,-8.62 -8.07,-12.15 -13.5,-17.53 -5.61,-5.56 -10.97,-11.95 -16.56,-16.61 -7.99,-6.66 -11.68,-2.69 -21.36,2.05 -62.48,30.57 -160.5,5.75 -184.24,-87.73 -29.39,-115.73 97.03,-210.38 202.04,-147.46 25.17,15.08 44.55,38.35 55.12,74.96 18.32,63.44 -14.05,100.22 -12.56,108.81l40.56 41.91c5.81,6.08 8.03,8.8 16.33,2.65 4.95,-3.67 9.55,-8.68 14.6,-12.78 5.48,-4.45 9.3,-7.92 14.3,-12.88 13.74,-13.66 38.19,-44.41 49.2,-61.52 19.25,-29.9 18.63,-30.48 -11.96,-71.75 -8.98,-12.12 -17.02,-20.78 -25.27,-31.15 -13.6,-17.09 -38.41,-37.72 -57.74,-51.02 -79.34,-54.6 -170.45,-67.61 -260.54,-28.84 -33.06,14.23 -72.18,43.22 -95.73,67.51 -18.8,19.4 -34.6,38.64 -49.58,61.21 -23.05,34.74 -6.68,47.13 25.73,88.01 2.41,3.04 3.29,4.81 5.89,7.72 58.52,65.26 137.53,115.96 238.01,108.04 20.66,-1.63 75.36,-11.64 87.26,-23.59z"/>
     <path class="fil2" d="M506.7 511.19c-11.26,4.41 -44.94,46.25 -50.09,43.99 -6.82,-11.09 1.68,-50.29 -3.16,-66.83 -58.29,-10.92 -109.36,96.37 -30.95,135.74 51.43,25.83 107.75,-16.43 104.46,-68.71 -1.13,-17.87 -9.26,-38.33 -20.26,-44.2z"/>
    </g>
   </g>
  </g>
 </g>
</svg>
